<svg xmlns="http://www.w3.org/2000/svg" viewBox="0 0 543 200" width="543" height="200">
<style>
.mindmap-node { cursor: pointer; }
.mindmap-label { font-family: sans-serif; font-size: 14px; text-anchor: middle; dominant-baseline: middle; fill: #333; }
.mindmap-branch { fill: none; }
</style>
<path d="M 271.4 50.6 Q 333.9 69.3 396.4 50.6" fill="none" stroke="#4572A7" stroke-width="2.5" stroke-linecap="round" class="mindmap-branch" data-node-id="Branch_A"/>
<path d="M 396.4 50.6 Q 448.8 52.8 493.7 25.8" fill="none" stroke="#4572A7" stroke-width="2.5" stroke-linecap="round" class="mindmap-branch" data-node-id="Leaf_1"/>
<path d="M 396.4 50.6 Q 442.2 77.9 495.4 75.4" fill="none" stroke="#4572A7" stroke-width="2.5" stroke-linecap="round" class="mindmap-branch" data-node-id="Leaf_2"/>
<path d="M 271.4 50.6 Q 209.0 31.9 146.5 50.6" fill="none" stroke="#AA4643" stroke-width="2.5" stroke-linecap="round" class="mindmap-branch" data-node-id="Branch_B"/>
<path d="M 146.5 50.6 Q 97.0 35.7 47.4 50.6" fill="none" stroke="#AA4643" stroke-width="2.5" stroke-linecap="round" class="mindmap-branch" data-node-id="Leaf_3"/>
<circle cx="271.4" cy="50.6" r="69.3" fill="#f0f0f0" stroke="#333" stroke-width="2" class="mindmap-node" data-node-id="root"/>
<text x="271.4" y="55.6" class="mindmap-label" data-node-id="root">Central Topic</text>
<rect x="342.8" y="28.8" width="107.2" height="43.6" rx="6" ry="6" fill="#a2b8d3" stroke="#4572A7" stroke-width="2" class="mindmap-node" data-node-id="Branch_A"/>
<text x="396.4" y="55.6" class="mindmap-label" data-node-id="Branch_A">Branch A</text>
<rect x="452.0" y="4.0" width="83.4" height="43.6" rx="6" ry="6" fill="#a2b8d3" stroke="#4572A7" stroke-width="2" class="mindmap-node" data-node-id="Leaf_1"/>
<text x="493.7" y="30.8" class="mindmap-label" data-node-id="Leaf_1">Leaf 1</text>
<rect x="452.0" y="53.6" width="86.9" height="43.6" rx="6" ry="6" fill="#a2b8d3" stroke="#4572A7" stroke-width="2" class="mindmap-node" data-node-id="Leaf_2"/>
<text x="495.4" y="80.4" class="mindmap-label" data-node-id="Leaf_2">Leaf 2</text>
<rect x="92.9" y="28.8" width="107.2" height="43.6" rx="6" ry="6" fill="#d4a2a1" stroke="#AA4643" stroke-width="2" class="mindmap-node" data-node-id="Branch_B"/>
<text x="146.5" y="55.6" class="mindmap-label" data-node-id="Branch_B">Branch B</text>
<rect x="4.0" y="28.8" width="86.9" height="43.6" rx="6" ry="6" fill="#d4a2a1" stroke="#AA4643" stroke-width="2" class="mindmap-node" data-node-id="Leaf_3"/>
<text x="47.4" y="55.6" class="mindmap-label" data-node-id="Leaf_3">Leaf 3</text>
</svg>