<svg xmlns="http://www.w3.org/2000/svg" viewBox="0 0 810 294" width="810" height="294">
<style>
.gantt-title { font-family: sans-serif; font-size: 18px; font-weight: bold; text-anchor: middle; fill: #333; }
.gantt-section { font-family: sans-serif; font-size: 13px; font-weight: bold; fill: #555; }
.gantt-label { font-family: sans-serif; font-size: 12px; fill: #333; }
.gantt-bar-text { font-family: sans-serif; font-size: 11px; fill: #fff; text-anchor: middle; dominant-baseline: central; }
.gantt-tick { font-family: sans-serif; font-size: 10px; fill: #666; text-anchor: middle; }
.gantt-grid { stroke: #e0e0e0; stroke-width: 0.5; }
</style>
<rect x="0" y="20" width="810" height="32" fill="#f0f0f0" data-section="Section"/>
<text x="10" y="40.0" class="gantt-section">Section</text>
<text x="170" y="72.0" class="gantt-label" text-anchor="end">Completed</text>
<rect x="180.00" y="57.0" width="300.00" height="22" rx="3" ry="3" fill="#A0A0A0" data-task-id="des1" data-section="Section"/>
<text x="170" y="104.0" class="gantt-label" text-anchor="end">Active</text>
<rect x="330.00" y="89.0" width="450.00" height="22" rx="3" ry="3" fill="#2ECC71" data-task-id="des2" data-section="Section"/>
<text x="170" y="136.0" class="gantt-label" text-anchor="end">Parallel 1</text>
<rect x="480.00" y="121.0" width="150.00" height="22" rx="3" ry="3" fill="#4572A7" data-task-id="des3" data-section="Section"/>
<text x="170" y="168.0" class="gantt-label" text-anchor="end">Parallel 2</text>
<rect x="480.00" y="153.0" width="150.00" height="22" rx="3" ry="3" fill="#4572A7" data-task-id="des4" data-section="Section"/>
<text x="170" y="200.0" class="gantt-label" text-anchor="end">Parallel 3</text>
<rect x="630.00" y="185.0" width="150.00" height="22" rx="3" ry="3" fill="#4572A7" data-task-id="des5" data-section="Section"/>
<text x="170" y="232.0" class="gantt-label" text-anchor="end">Parallel 4</text>
<rect x="630.00" y="217.0" width="150.00" height="22" rx="3" ry="3" fill="#4572A7" data-task-id="des6" data-section="Section"/>
<line x1="180" y1="254" x2="780" y2="254" stroke="#333" stroke-width="1"/>
<line x1="180.00" y1="254" x2="180.00" y2="260" stroke="#333" stroke-width="1"/>
<line x1="180.00" y1="20" x2="180.00" y2="254" class="gantt-grid"/>
<text x="180.00" y="270" class="gantt-tick">2014-01-06</text>
<line x1="480.00" y1="254" x2="480.00" y2="260" stroke="#333" stroke-width="1"/>
<line x1="480.00" y1="20" x2="480.00" y2="254" class="gantt-grid"/>
<text x="480.00" y="270" class="gantt-tick">2014-01-08</text>
<line x1="780.00" y1="254" x2="780.00" y2="260" stroke="#333" stroke-width="1"/>
<line x1="780.00" y1="20" x2="780.00" y2="254" class="gantt-grid"/>
<text x="780.00" y="270" class="gantt-tick">2014-01-10</text>
</svg>