<svg xmlns="http://www.w3.org/2000/svg" viewBox="-20.0 -20 630 560" width="630" height="560" style="background-color: white">
  <defs>
    <marker id="seq-arrow" markerWidth="10" markerHeight="7" refX="10" refY="3.5" orient="auto">
      <polygon points="0 0, 10 3.5, 0 7" fill="#333333" />
    </marker>
    <marker id="seq-arrow-open" markerWidth="10" markerHeight="7" refX="10" refY="3.5" orient="auto">
      <polyline points="0 0, 10 3.5, 0 7" fill="none" stroke="#333333" stroke-width="1.5" />
    </marker>
    <marker id="seq-cross" markerWidth="10" markerHeight="10" refX="5" refY="5" orient="auto">
      <line x1="0" y1="0" x2="10" y2="10" stroke="#333333" stroke-width="2" />
      <line x1="10" y1="0" x2="0" y2="10" stroke="#333333" stroke-width="2" />
    </marker>
    <marker id="seq-async" markerWidth="10" markerHeight="7" refX="10" refY="3.5" orient="auto">
      <polyline points="0 0, 10 3.5, 0 7" fill="none" stroke="#333333" stroke-width="1.5" />
    </marker>
  </defs>
  <style>.seq-participant rect { fill: #ECECFF; stroke: #9370DB; stroke-width: 1; }
.seq-participant text { fill: #333333; font-family: "trebuchet ms", verdana, arial, sans-serif, "Apple Color Emoji", "Segoe UI Emoji", "Noto Color Emoji", "Twemoji Mozilla"; font-size: 14px; }
.seq-lifeline { stroke: #9370DB; stroke-width: 1; stroke-dasharray: 5,5; }
.seq-message line, .seq-message path { stroke: #333333; stroke-width: 2; }
.seq-message text { fill: #333333; font-family: "trebuchet ms", verdana, arial, sans-serif, "Apple Color Emoji", "Segoe UI Emoji", "Noto Color Emoji", "Twemoji Mozilla"; font-size: 12px; }
.seq-activation { fill: #ECECFF; stroke: #9370DB; stroke-width: 1; }
.seq-note rect { fill: #ffffcc; stroke: #aaaa33; stroke-width: 1; }
.seq-note text { fill: #333333; font-family: "trebuchet ms", verdana, arial, sans-serif, "Apple Color Emoji", "Segoe UI Emoji", "Noto Color Emoji", "Twemoji Mozilla"; font-size: 12px; }
.seq-fragment rect { fill: none; stroke: #9370DB; stroke-width: 1; stroke-dasharray: 3,3; }
.seq-fragment text { fill: #333333; font-family: "trebuchet ms", verdana, arial, sans-serif, "Apple Color Emoji", "Segoe UI Emoji", "Noto Color Emoji", "Twemoji Mozilla"; font-size: 11px; font-weight: bold; }
.seq-actor line, .seq-actor circle { stroke: #9370DB; stroke-width: 1; fill: none; }
.seq-actor text { fill: #333333; font-family: "trebuchet ms", verdana, arial, sans-serif, "Apple Color Emoji", "Segoe UI Emoji", "Noto Color Emoji", "Twemoji Mozilla"; font-size: 14px; }
</style>
  <line class="seq-lifeline" x1="70" y1="60" x2="70" y2="500" />
  <line class="seq-lifeline" x1="220" y1="60" x2="220" y2="500" />
  <line class="seq-lifeline" x1="370" y1="60" x2="370" y2="500" />
  <line class="seq-lifeline" x1="520" y1="60" x2="520" y2="500" />
  <g class="seq-fragment">
    <rect x="10" y="140" width="570" height="115" />
    <rect x="10" y="140" width="42" height="20" fill="#e8e8e8" stroke="none" />
    <text x="15" y="154">LOOP</text>
    <text x="57" y="154">[Every minute]</text>
  </g>
  <g class="seq-fragment">
    <rect x="10" y="255" width="570" height="75" />
    <rect x="10" y="255" width="34" height="20" fill="#e8e8e8" stroke="none" />
    <text x="15" y="269">ALT</text>
    <text x="49" y="269">[Has data]</text>
  </g>
  <g class="seq-fragment">
    <rect x="10" y="330" width="570" height="75" />
    <rect x="10" y="330" width="42" height="20" fill="#e8e8e8" stroke="none" />
    <text x="15" y="344">ELSE</text>
    <text x="57" y="344">[No data]</text>
  </g>
  <g class="seq-fragment">
    <rect x="10" y="405" width="570" height="75" />
    <rect x="10" y="405" width="34" height="20" fill="#e8e8e8" stroke="none" />
    <text x="15" y="419">OPT</text>
    <text x="49" y="419">[Extra logging]</text>
  </g>
  <g class="seq-message">
    <line x1="70" y1="100" x2="220" y2="100" marker-end="url(#seq-arrow)" />
    <text x="145" text-anchor="middle" y="95">Request data</text>
  </g>
  <g class="seq-message">
    <line x1="220" y1="165" x2="370" y2="165" marker-end="url(#seq-arrow)" />
    <text x="295" text-anchor="middle" y="160">Poll for updates</text>
  </g>
  <g class="seq-message">
    <line x1="370" y1="205" x2="220" y2="205" marker-end="url(#seq-arrow)" stroke-dasharray="5,5" />
    <text x="295" text-anchor="middle" y="200">Response</text>
  </g>
  <g class="seq-message">
    <line x1="220" y1="280" x2="70" y2="280" marker-end="url(#seq-arrow)" stroke-dasharray="5,5" />
    <text x="145" text-anchor="middle" y="275">Here is the data</text>
  </g>
  <g class="seq-message">
    <line x1="220" y1="355" x2="70" y2="355" marker-end="url(#seq-arrow)" stroke-dasharray="5,5" />
    <text x="145" text-anchor="middle" y="350">No updates yet</text>
  </g>
  <g class="seq-message">
    <line x1="220" y1="430" x2="520" y2="430" marker-end="url(#seq-arrow)" />
    <text x="370" text-anchor="middle" y="425">Log result</text>
  </g>
  <g class="seq-participant" data-participant-id="Alice">
    <rect x="20" y="20" width="100" height="40" rx="5" />
    <text x="70" y="40" text-anchor="middle" dominant-baseline="central">Alice</text>
  </g>
  <g class="seq-participant" data-participant-id="Bob">
    <rect x="170" y="20" width="100" height="40" rx="5" />
    <text x="220" y="40" text-anchor="middle" dominant-baseline="central">Bob</text>
  </g>
  <g class="seq-participant" data-participant-id="Server">
    <rect x="320" y="20" width="100" height="40" rx="5" />
    <text x="370" y="40" text-anchor="middle" dominant-baseline="central">Server</text>
  </g>
  <g class="seq-participant" data-participant-id="Logger">
    <rect x="470" y="20" width="100" height="40" rx="5" />
    <text x="520" y="40" text-anchor="middle" dominant-baseline="central">Logger</text>
  </g>
</svg>