<svg xmlns="http://www.w3.org/2000/svg" viewBox="-8.0 -8.0 120.8 212.8" width="120.8" height="212.8" style="background-color: white">
  <defs>
    <marker id="arrow" viewBox="0 0 10 10" markerWidth="8" markerHeight="8" refX="10" refY="5" orient="auto" markerUnits="userSpaceOnUse">
      <path d="M 0 0 L 10 5 L 0 10 z" fill="#333333" />
    </marker>
    <marker id="circle-end" viewBox="0 0 10 10" markerWidth="8" markerHeight="8" refX="10" refY="5" orient="auto" markerUnits="userSpaceOnUse">
      <circle cx="5" cy="5" r="5" fill="#333333" />
    </marker>
    <marker id="cross-end" viewBox="0 0 11 11" markerWidth="8" markerHeight="8" refX="10" refY="5.5" orient="auto" markerUnits="userSpaceOnUse">
      <path d="M 1,1 l 9,9 M 10,1 l -9,9" stroke="#333333" stroke-width="2" />
    </marker>
    <marker id="arrow-reverse" viewBox="0 0 10 10" markerWidth="8" markerHeight="8" refX="10" refY="5" orient="auto-start-reverse" markerUnits="userSpaceOnUse">
      <path d="M 0 0 L 10 5 L 0 10 z" fill="#333333" />
    </marker>
  </defs>
  <style>.node rect, .node polygon, .node circle, .node &gt; path, .node line { fill: #ECECFF; stroke: #9370DB; stroke-width: 1; }
.node text { fill: #333333; font-family: "trebuchet ms", verdana, arial, sans-serif, "Apple Color Emoji", "Segoe UI Emoji", "Noto Color Emoji", "Twemoji Mozilla"; font-size: 16px; }
.edge path { fill: none; stroke: #333333; }
.edge text { fill: #333333; font-family: "trebuchet ms", verdana, arial, sans-serif, "Apple Color Emoji", "Segoe UI Emoji", "Noto Color Emoji", "Twemoji Mozilla"; font-size: 12px; }
.subgraph rect { fill: #ffffde; stroke: #aaaa33; stroke-width: 1; opacity: 0.5; }
.subgraph text { fill: #333333; font-family: "trebuchet ms", verdana, arial, sans-serif, "Apple Color Emoji", "Segoe UI Emoji", "Noto Color Emoji", "Twemoji Mozilla"; font-size: 12px; font-weight: bold; }
</style>
  <g class="edge" data-edge-source="A" data-edge-target="B">
    <path d="M52.4,78.4 L52.4,118.4" stroke-width="2" marker-end="url(#arrow)" />
  </g>
  <g class="node" data-node-id="A">
    <path d="M 2.0,10.0 A 50.4,10.0 0 0 1 102.8,10.0 L 102.8,68.4 A 50.4,10.0 0 0 1 2.0,68.4 L 2.0,10.0 M 2.0,10.0 A 50.4,10.0 0 0 0 102.8,10.0" />
    <text text-anchor="middle" dominant-baseline="central" font-family="&quot;trebuchet ms&quot;, verdana, arial, sans-serif, &quot;Apple Color Emoji&quot;, &quot;Segoe UI Emoji&quot;, &quot;Noto Color Emoji&quot;, &quot;Twemoji Mozilla&quot;" x="52.4" y="39.2">Cylinder</text>
  </g>
  <g class="node" data-node-id="B">
    <path d="M 0.0,128.4 A 52.4,10.0 0 0 1 104.8,128.4 L 104.8,186.8 A 52.4,10.0 0 0 1 0.0,186.8 L 0.0,128.4 M 0.0,128.4 A 52.4,10.0 0 0 0 104.8,128.4" />
    <text text-anchor="middle" dominant-baseline="central" font-family="&quot;trebuchet ms&quot;, verdana, arial, sans-serif, &quot;Apple Color Emoji&quot;, &quot;Segoe UI Emoji&quot;, &quot;Noto Color Emoji&quot;, &quot;Twemoji Mozilla&quot;" x="52.4" y="157.6">Database</text>
  </g>
</svg>