<svg xmlns="http://www.w3.org/2000/svg" viewBox="-8 -8 148.8 244.4" width="148.8" height="244.4" style="background-color: white">
  <defs>
    <marker id="arrow" viewBox="0 0 10 10" markerWidth="8" markerHeight="8" refX="5" refY="5" orient="auto" markerUnits="userSpaceOnUse">
      <path d="M 0 0 L 10 5 L 0 10 z" fill="#333333" />
    </marker>
    <marker id="circle-end" viewBox="0 0 10 10" markerWidth="11" markerHeight="11" refX="11" refY="5" orient="auto" markerUnits="userSpaceOnUse">
      <circle cx="5" cy="5" r="5" fill="#333333" />
    </marker>
    <marker id="cross-end" viewBox="0 0 11 11" markerWidth="11" markerHeight="11" refX="12" refY="5.2" orient="auto" markerUnits="userSpaceOnUse">
      <path d="M 1,1 l 9,9 M 10,1 l -9,9" stroke="#333333" stroke-width="2" />
    </marker>
    <marker id="arrow-reverse" viewBox="0 0 10 10" markerWidth="8" markerHeight="8" refX="5" refY="5" orient="auto-start-reverse" markerUnits="userSpaceOnUse">
      <path d="M 0 0 L 10 5 L 0 10 z" fill="#333333" />
    </marker>
  </defs>
  <style>.node rect, .node polygon, .node circle, .node path, .node line { fill: #ECECFF; stroke: #9370DB; stroke-width: 1; }
.node text { fill: #333333; font-family: "trebuchet ms", verdana, arial, sans-serif; font-size: 16px; }
.edge path { fill: none; stroke: #333333; }
.edge text { fill: #333333; font-family: "trebuchet ms", verdana, arial, sans-serif; font-size: 12px; }
.subgraph rect { fill: #ffffde; stroke: #aaaa33; stroke-width: 1; opacity: 0.5; }
.subgraph text { fill: #333333; font-family: "trebuchet ms", verdana, arial, sans-serif; font-size: 12px; font-weight: bold; }
</style>
  <g class="edge" data-edge-source="A" data-edge-target="B">
    <path d="M66.4,89.2 L66.4,139.2" stroke-width="1" marker-end="url(#arrow)" />
  </g>
  <g class="node" data-node-id="A">
    <path d="M 2.0,10.0 A 64.4,10.0 0 0 1 130.8,10.0 L 130.8,79.2 A 64.4,10.0 0 0 1 2.0,79.2 L 2.0,10.0 M 2.0,10.0 A 64.4,10.0 0 0 0 130.8,10.0" />
    <text text-anchor="middle" dominant-baseline="central" font-family="&quot;trebuchet ms&quot;, verdana, arial, sans-serif" x="66.4" y="44.6">Cylinder</text>
  </g>
  <g class="node" data-node-id="B">
    <path d="M 0.0,149.2 A 66.4,10.0 0 0 1 132.8,149.2 L 132.8,218.4 A 66.4,10.0 0 0 1 0.0,218.4 L 0.0,149.2 M 0.0,149.2 A 66.4,10.0 0 0 0 132.8,149.2" />
    <text text-anchor="middle" dominant-baseline="central" font-family="&quot;trebuchet ms&quot;, verdana, arial, sans-serif" x="66.4" y="183.8">Database</text>
  </g>
</svg>