<svg xmlns="http://www.w3.org/2000/svg" viewBox="-20 -20 142.8 228" width="142.8" height="228" style="background-color: white">
  <defs>
    <marker id="arrow" markerWidth="10" markerHeight="7" refX="10" refY="3.5" orient="auto" markerUnits="strokeWidth">
      <path d="M0,0 L10,3.5 L0,7 Z" fill="#333333" />
    </marker>
    <marker id="circle-end" markerWidth="10" markerHeight="10" refX="5" refY="5" orient="auto" markerUnits="strokeWidth">
      <circle cx="5" cy="5" r="4" fill="#333333" />
    </marker>
    <marker id="cross-end" markerWidth="10" markerHeight="10" refX="5" refY="5" orient="auto" markerUnits="strokeWidth">
      <line x1="1" y1="1" x2="9" y2="9" stroke="#333333" stroke-width="2" />
      <line x1="9" y1="1" x2="1" y2="9" stroke="#333333" stroke-width="2" />
    </marker>
    <marker id="arrow-reverse" markerWidth="10" markerHeight="7" refX="10" refY="3.5" orient="auto-start-reverse" markerUnits="strokeWidth">
      <path d="M0,0 L10,3.5 L0,7 Z" fill="#333333" />
    </marker>
  </defs>
  <style>.node rect, .node polygon, .node circle, .node path, .node line { fill: #ECECFF; stroke: #9370DB; stroke-width: 2; }
.node text { fill: #333333; font-family: "trebuchet ms", verdana, arial, sans-serif; font-size: 16px; }
.edge path { fill: none; stroke: #333333; stroke-width: 2; }
.edge text { fill: #333333; font-family: "trebuchet ms", verdana, arial, sans-serif; font-size: 12px; }
.subgraph rect { fill: #ffffde; stroke: #aaaa33; stroke-width: 1; opacity: 0.5; }
.subgraph text { fill: #333333; font-family: "trebuchet ms", verdana, arial, sans-serif; font-size: 12px; font-weight: bold; }
</style>
  <g class="edge" data-edge-source="A" data-edge-target="B">
    <path d="M51.4,54.0 L51.4,134.0" stroke-width="2" marker-end="url(#arrow)" />
  </g>
  <g class="node" data-node-id="A">
    <path d="M 2.0,10.0 A 49.4,10.0 0 0 1 100.8,10.0 L 100.8,44.0 A 49.4,10.0 0 0 1 2.0,44.0 L 2.0,10.0 M 2.0,10.0 A 49.4,10.0 0 0 0 100.8,10.0" />
    <text text-anchor="middle" dominant-baseline="central" font-family="&quot;trebuchet ms&quot;, verdana, arial, sans-serif" x="51.4" y="27">Cylinder</text>
  </g>
  <g class="node" data-node-id="B">
    <path d="M 0.0,144.0 A 51.4,10.0 0 0 1 102.8,144.0 L 102.8,178.0 A 51.4,10.0 0 0 1 0.0,178.0 L 0.0,144.0 M 0.0,144.0 A 51.4,10.0 0 0 0 102.8,144.0" />
    <text text-anchor="middle" dominant-baseline="central" font-family="&quot;trebuchet ms&quot;, verdana, arial, sans-serif" x="51.4" y="161">Database</text>
  </g>
</svg>