<svg xmlns="http://www.w3.org/2000/svg" viewBox="0 0 920 190" width="920" height="190">
<style>
.gitgraph-label { font-family: sans-serif; font-size: 12px; fill: #333; }
.gitgraph-branch-label { font-family: sans-serif; font-size: 14px; font-weight: bold; }
.gitgraph-tag { font-family: sans-serif; font-size: 11px; fill: #333; }
</style>
<line x1="120.0" y1="40.0" x2="840.0" y2="40.0" stroke="#47d147" stroke-width="2" class="gitgraph-branch-line"/>
<line x1="280.0" y1="90.0" x2="680.0" y2="90.0" stroke="#ff6666" stroke-width="2" class="gitgraph-branch-line"/>
<line x1="440.0" y1="140.0" x2="520.0" y2="140.0" stroke="#6699ff" stroke-width="2" class="gitgraph-branch-line"/>
<line x1="120.0" y1="40.0" x2="200.0" y2="40.0" stroke="#47d147" stroke-width="3" class="gitgraph-branch-line"/>
<line x1="200.0" y1="40.0" x2="760.0" y2="40.0" stroke="#47d147" stroke-width="3" class="gitgraph-branch-line"/>
<line x1="760.0" y1="40.0" x2="840.0" y2="40.0" stroke="#47d147" stroke-width="3" class="gitgraph-branch-line"/>
<line x1="280.0" y1="90.0" x2="360.0" y2="90.0" stroke="#ff6666" stroke-width="3" class="gitgraph-branch-line"/>
<line x1="360.0" y1="90.0" x2="600.0" y2="90.0" stroke="#ff6666" stroke-width="3" class="gitgraph-branch-line"/>
<line x1="600.0" y1="90.0" x2="680.0" y2="90.0" stroke="#ff6666" stroke-width="3" class="gitgraph-branch-line"/>
<line x1="440.0" y1="140.0" x2="520.0" y2="140.0" stroke="#6699ff" stroke-width="3" class="gitgraph-branch-line"/>
<line x1="520.0" y1="140.0" x2="600.0" y2="90.0" stroke="#999" stroke-width="2" class="gitgraph-merge-line"/>
<line x1="680.0" y1="90.0" x2="760.0" y2="40.0" stroke="#999" stroke-width="2" class="gitgraph-merge-line"/>
<circle cx="120.0" cy="40.0" r="8" fill="#47d147" stroke="#47d147" stroke-width="2" class="gitgraph-commit"/>
<circle cx="200.0" cy="40.0" r="8" fill="#47d147" stroke="#47d147" stroke-width="2" class="gitgraph-commit"/>
<circle cx="280.0" cy="90.0" r="8" fill="#ff6666" stroke="#ff6666" stroke-width="2" class="gitgraph-commit"/>
<circle cx="360.0" cy="90.0" r="8" fill="#ff6666" stroke="#ff6666" stroke-width="2" class="gitgraph-commit"/>
<circle cx="440.0" cy="140.0" r="12" fill="#6699ff" stroke="#6699ff" stroke-width="3" class="gitgraph-commit"/>
<circle cx="520.0" cy="140.0" r="8" fill="#6699ff" stroke="#6699ff" stroke-width="2" class="gitgraph-commit"/>
<circle cx="600.0" cy="90.0" r="8" fill="#ff6666" stroke="#ff6666" stroke-width="2" class="gitgraph-commit"/>
<circle cx="680.0" cy="90.0" r="8" fill="#ffffff" stroke="#ff6666" stroke-width="2" class="gitgraph-commit"/>
<circle cx="760.0" cy="40.0" r="8" fill="#47d147" stroke="#47d147" stroke-width="2" class="gitgraph-commit"/>
<circle cx="840.0" cy="40.0" r="8" fill="#47d147" stroke="#47d147" stroke-width="2" class="gitgraph-commit"/>
<text x="120.0" y="25.0" text-anchor="middle" class="gitgraph-label">init</text>
<text x="200.0" y="25.0" text-anchor="middle" class="gitgraph-label">feat-1</text>
<text x="280.0" y="75.0" text-anchor="middle" class="gitgraph-label">dev-1</text>
<text x="360.0" y="75.0" text-anchor="middle" class="gitgraph-label">dev-2</text>
<text x="440.0" y="125.0" text-anchor="middle" class="gitgraph-label">f-1</text>
<text x="520.0" y="125.0" text-anchor="middle" class="gitgraph-label">f-2</text>
<text x="680.0" y="75.0" text-anchor="middle" class="gitgraph-label">dev-3</text>
<text x="840.0" y="25.0" text-anchor="middle" class="gitgraph-label">hotfix</text>
<rect x="180.0" y="52.0" width="40" height="16" rx="4" ry="4" fill="#ffffcc" stroke="#999" stroke-width="1" class="gitgraph-tag-badge"/>
<text x="200.0" y="64.0" text-anchor="middle" class="gitgraph-tag">v1.0</text>
<rect x="552.0" y="102.0" width="96" height="16" rx="4" ry="4" fill="#ffffcc" stroke="#999" stroke-width="1" class="gitgraph-tag-badge"/>
<text x="600.0" y="114.0" text-anchor="middle" class="gitgraph-tag">feature-done</text>
<rect x="740.0" y="52.0" width="40" height="16" rx="4" ry="4" fill="#ffffcc" stroke="#999" stroke-width="1" class="gitgraph-tag-badge"/>
<text x="760.0" y="64.0" text-anchor="middle" class="gitgraph-tag">v2.0</text>
<text x="10.0" y="44.0" fill="#47d147" class="gitgraph-branch-label">main</text>
<text x="10.0" y="94.0" fill="#ff6666" class="gitgraph-branch-label">develop</text>
<text x="10.0" y="144.0" fill="#6699ff" class="gitgraph-branch-label">feature</text>
</svg>