<svg xmlns="http://www.w3.org/2000/svg" viewBox="-8.0 -8.0 366.4 304" width="366.4" height="304" style="background-color: white">
  <defs>
    <marker id="arrow" viewBox="0 0 10 10" markerWidth="8" markerHeight="8" refX="10" refY="5" orient="auto" markerUnits="userSpaceOnUse">
      <path d="M 0 0 L 10 5 L 0 10 z" fill="#333333" />
    </marker>
    <marker id="circle-end" viewBox="0 0 10 10" markerWidth="8" markerHeight="8" refX="10" refY="5" orient="auto" markerUnits="userSpaceOnUse">
      <circle cx="5" cy="5" r="5" fill="#333333" />
    </marker>
    <marker id="cross-end" viewBox="0 0 11 11" markerWidth="8" markerHeight="8" refX="10" refY="5.5" orient="auto" markerUnits="userSpaceOnUse">
      <path d="M 1,1 l 9,9 M 10,1 l -9,9" stroke="#333333" stroke-width="2" />
    </marker>
    <marker id="arrow-reverse" viewBox="0 0 10 10" markerWidth="8" markerHeight="8" refX="10" refY="5" orient="auto-start-reverse" markerUnits="userSpaceOnUse">
      <path d="M 0 0 L 10 5 L 0 10 z" fill="#333333" />
    </marker>
  </defs>
  <style>.node rect, .node polygon, .node circle, .node &gt; path, .node line { fill: #ECECFF; stroke: #9370DB; stroke-width: 1; }
.node text { fill: #333333; font-family: "trebuchet ms", verdana, arial, sans-serif, "Apple Color Emoji", "Segoe UI Emoji", "Noto Color Emoji", "Twemoji Mozilla"; font-size: 16px; }
.edge path { fill: none; stroke: #333333; }
.edge text { fill: #333333; font-family: "trebuchet ms", verdana, arial, sans-serif, "Apple Color Emoji", "Segoe UI Emoji", "Noto Color Emoji", "Twemoji Mozilla"; font-size: 12px; }
.subgraph rect { fill: #ffffde; stroke: #aaaa33; stroke-width: 1; opacity: 0.5; }
.subgraph text { fill: #333333; font-family: "trebuchet ms", verdana, arial, sans-serif, "Apple Color Emoji", "Segoe UI Emoji", "Noto Color Emoji", "Twemoji Mozilla"; font-size: 12px; font-weight: bold; }
</style>
  <g class="edge" data-edge-source="A" data-edge-target="B">
    <path d="M155.09,42.0 L106.51,82.0" stroke-width="2" marker-end="url(#arrow)" />
  </g>
  <g class="edge" data-edge-source="A" data-edge-target="C">
    <path d="M202.42,42.0 L243.98,82.0" stroke-width="2" marker-end="url(#arrow)" />
  </g>
  <g class="edge" data-edge-source="B" data-edge-target="D">
    <path d="M81.0,124.0 L81.0,164.0" stroke-width="2" marker-end="url(#arrow)" />
  </g>
  <g class="edge" data-edge-source="C" data-edge-target="E">
    <path d="M265.8,124.0 L265.8,164.0" stroke-width="2" marker-end="url(#arrow)" />
  </g>
  <g class="edge" data-edge-source="D" data-edge-target="F">
    <path d="M106.51,206.0 L155.09,246.0" stroke-width="2" marker-end="url(#arrow)" />
  </g>
  <g class="edge" data-edge-source="E" data-edge-target="F">
    <path d="M243.98,206.0 L202.42,246.0" stroke-width="2" marker-end="url(#arrow)" />
  </g>
  <g class="node" data-node-id="A">
    <rect x="82.4" y="0.0" width="196.4" height="42.0" />
    <g class="fa-icon" transform="translate(100.6,9) scale(0.05)">
      <path d="M224-32c7 0 13.7 3.1 18.3 8.5l136 160c6.1 7.1 7.4 17.1 3.5 25.6S369.4 176 360 176l-24.9 0 75.2 88.5c6.1 7.1 7.4 17.1 3.5 25.6S401.4 304 392 304l-38.5 0 88.8 104.5c6.1 7.1 7.4 17.1 3.5 25.6S433.4 448 424 448l-168 0 0 64c0 17.7-14.3 32-32 32s-32-14.3-32-32l0-64-168 0c-9.4 0-17.9-5.4-21.8-13.9s-2.6-18.5 3.5-25.6L94.5 304 56 304c-9.4 0-17.9-5.4-21.8-13.9s-2.6-18.5 3.5-25.6L112.9 176 88 176c-9.4 0-17.9-5.4-21.8-13.9s-2.6-18.5 3.5-25.6l136-160C210.3-28.9 217-32 224-32z" fill="#333333" />
    </g>
    <text x="189.6" y="21" text-anchor="middle" dominant-baseline="central" font-family="&quot;trebuchet ms&quot;, verdana, arial, sans-serif, &quot;Apple Color Emoji&quot;, &quot;Segoe UI Emoji&quot;, &quot;Noto Color Emoji&quot;, &quot;Twemoji Mozilla&quot;"> Christmas Tree</text>
  </g>
  <g class="node" data-node-id="B">
    <rect x="10.8" y="82.0" width="140.4" height="42.0" />
    <g class="fa-icon" transform="translate(29.8,91) scale(0.05)">
      <path d="M321.5 68.8C329.1 55.9 342.9 48 357.8 48l2.2 0c22.1 0 40 17.9 40 40s-17.9 40-40 40l-73.3 0 34.8-59.2zm-131 0l34.8 59.2-73.3 0c-22.1 0-40-17.9-40-40s17.9-40 40-40l2.2 0c14.9 0 28.8 7.9 36.3 20.8zm89.6-24.3l-24.1 41-24.1-41C215.7 16.9 186.1 0 154.2 0L152 0c-48.6 0-88 39.4-88 88 0 14.4 3.5 28 9.6 40L32 128c-17.7 0-32 14.3-32 32l0 32c0 17.7 14.3 32 32 32l448 0c17.7 0 32-14.3 32-32l0-32c0-17.7-14.3-32-32-32l-41.6 0c6.1-12 9.6-25.6 9.6-40 0-48.6-39.4-88-88-88l-2.2 0c-31.9 0-61.5 16.9-77.7 44.4zM480 272l-200 0 0 208 136 0c35.3 0 64-28.7 64-64l0-144zm-248 0l-200 0 0 144c0 35.3 28.7 64 64 64l136 0 0-208z" fill="#333333" />
    </g>
    <text x="90" y="103" text-anchor="middle" dominant-baseline="central" font-family="&quot;trebuchet ms&quot;, verdana, arial, sans-serif, &quot;Apple Color Emoji&quot;, &quot;Segoe UI Emoji&quot;, &quot;Noto Color Emoji&quot;, &quot;Twemoji Mozilla&quot;"> Presents</text>
  </g>
  <g class="node" data-node-id="C">
    <rect x="181.2" y="82.0" width="169.2" height="42.0" />
    <g class="fa-icon" transform="translate(200.2,91) scale(0.05)">
      <path d="M309.5-18.9c-4.1-8-12.4-13.1-21.4-13.1s-17.3 5.1-21.4 13.1L193.1 125.3 33.2 150.7c-8.9 1.4-16.3 7.7-19.1 16.3s-.5 18 5.8 24.4l114.4 114.5-25.2 159.9c-1.4 8.9 2.3 17.9 9.6 23.2s16.9 6.1 25 2L288.1 417.6 432.4 491c8 4.1 17.7 3.3 25-2s11-14.2 9.6-23.2L441.7 305.9 556.1 191.4c6.4-6.4 8.6-15.8 5.8-24.4s-10.1-14.9-19.1-16.3L383 125.3 309.5-18.9z" fill="#333333" />
    </g>
    <text x="274.8" y="103" text-anchor="middle" dominant-baseline="central" font-family="&quot;trebuchet ms&quot;, verdana, arial, sans-serif, &quot;Apple Color Emoji&quot;, &quot;Segoe UI Emoji&quot;, &quot;Noto Color Emoji&quot;, &quot;Twemoji Mozilla&quot;"> Star on Top</text>
  </g>
  <g class="node" data-node-id="D">
    <rect x="0.0" y="164.0" width="162.0" height="42.0" />
    <g class="fa-icon" transform="translate(20.2,173) scale(0.05)">
      <path d="M135.2 117.4l-26.1 74.6 293.8 0-26.1-74.6C372.3 104.6 360.2 96 346.6 96L165.4 96c-13.6 0-25.7 8.6-30.2 21.4zM39.6 196.8L74.8 96.3C88.3 57.8 124.6 32 165.4 32l181.2 0c40.8 0 77.1 25.8 90.6 64.3l35.2 100.5c23.2 9.6 39.6 32.5 39.6 59.2l0 192c0 17.7-14.3 32-32 32l-32 0c-17.7 0-32-14.3-32-32l0-32-320 0 0 32c0 17.7-14.3 32-32 32l-32 0c-17.7 0-32-14.3-32-32L0 256c0-26.7 16.4-49.6 39.6-59.2zM128 304a32 32 0 1 0 -64 0 32 32 0 1 0 64 0zm288 32a32 32 0 1 0 0-64 32 32 0 1 0 0 64z" fill="#333333" />
    </g>
    <text x="90" y="185" text-anchor="middle" dominant-baseline="central" font-family="&quot;trebuchet ms&quot;, verdana, arial, sans-serif, &quot;Apple Color Emoji&quot;, &quot;Segoe UI Emoji&quot;, &quot;Noto Color Emoji&quot;, &quot;Twemoji Mozilla&quot;"> Drive Home</text>
  </g>
  <g class="node" data-node-id="E">
    <rect x="207.2" y="164.0" width="117.2" height="42.0" />
    <g class="fa-icon" transform="translate(224.2,173) scale(0.05)">
      <path d="M272 384c9.6-31.9 29.5-59.1 49.2-86.2c0 0 0 0 0 0c5.2-7.1 10.4-14.2 15.4-21.4c19.8-28.5 31.4-63 31.4-100.3C368 78.8 289.2 0 192 0S16 78.8 16 176c0 37.3 11.6 71.9 31.4 100.3c5 7.2 10.2 14.3 15.4 21.4c0 0 0 0 0 0c19.8 27.1 39.7 54.4 49.2 86.2l160 0zM192 512c44.2 0 80-35.8 80-80l-160 0c0 44.2 35.8 80 80 80zM112 176c0 8.8-7.2 16-16 16s-16-7.2-16-16c0-61.9 50.1-112 112-112c8.8 0 16 7.2 16 16s-7.2 16-16 16c-44.2 0-80 35.8-80 80z" fill="#333333" />
    </g>
    <text x="274.8" y="185" text-anchor="middle" dominant-baseline="central" font-family="&quot;trebuchet ms&quot;, verdana, arial, sans-serif, &quot;Apple Color Emoji&quot;, &quot;Segoe UI Emoji&quot;, &quot;Noto Color Emoji&quot;, &quot;Twemoji Mozilla&quot;"> Lights</text>
  </g>
  <g class="node" data-node-id="F">
    <rect x="126.4" y="246.0" width="108.4" height="42.0" />
    <g class="fa-icon" transform="translate(148.6,255) scale(0.05)">
      <path d="M277.8 8.6c-12.3-11.4-31.3-11.4-43.5 0l-224 208c-9.6 9-12.8 22.9-8 35.1S18.8 272 32 272l16 0 0 176c0 35.3 28.7 64 64 64l288 0c35.3 0 64-28.7 64-64l0-176 16 0c13.2 0 25-8.1 29.8-20.3s1.6-26.2-8-35.1l-224-208zM240 320l32 0c26.5 0 48 21.5 48 48l0 96-128 0 0-96c0-26.5 21.5-48 48-48z" fill="#333333" />
    </g>
    <text x="189.6" y="267" text-anchor="middle" dominant-baseline="central" font-family="&quot;trebuchet ms&quot;, verdana, arial, sans-serif, &quot;Apple Color Emoji&quot;, &quot;Segoe UI Emoji&quot;, &quot;Noto Color Emoji&quot;, &quot;Twemoji Mozilla&quot;"> Home</text>
  </g>
</svg>