<svg xmlns="http://www.w3.org/2000/svg" viewBox="-8.0 -8.0 343.6 322.8" width="343.6" height="322.8" style="background-color: white">
  <defs>
    <marker id="arrow" viewBox="0 0 10 10" markerWidth="8" markerHeight="8" refX="0" refY="5" orient="auto" markerUnits="userSpaceOnUse">
      <path d="M 0 0 L 10 5 L 0 10 z" fill="#333333" />
    </marker>
    <marker id="circle-end" viewBox="0 0 10 10" markerWidth="8" markerHeight="8" refX="5" refY="5" orient="auto" markerUnits="userSpaceOnUse">
      <circle cx="5" cy="5" r="5" fill="#333333" />
    </marker>
    <marker id="cross-end" viewBox="0 0 11 11" markerWidth="8" markerHeight="8" refX="5.5" refY="5.5" orient="auto" markerUnits="userSpaceOnUse">
      <path d="M 1,1 l 9,9 M 10,1 l -9,9" stroke="#333333" stroke-width="2" />
    </marker>
    <marker id="arrow-reverse" viewBox="0 0 10 10" markerWidth="8" markerHeight="8" refX="0" refY="5" orient="auto-start-reverse" markerUnits="userSpaceOnUse">
      <path d="M 0 0 L 10 5 L 0 10 z" fill="#333333" />
    </marker>
  </defs>
  <style>.node rect, .node polygon, .node circle, .node &gt; path, .node line { fill: #ECECFF; stroke: #9370DB; stroke-width: 1; }
.node text { fill: #333333; font-family: "trebuchet ms", verdana, arial, sans-serif, "Apple Color Emoji", "Segoe UI Emoji", "Noto Color Emoji", "Twemoji Mozilla"; font-size: 16px; }
.edge path { fill: none; stroke: #333333; }
.edge text { fill: #333333; font-family: "trebuchet ms", verdana, arial, sans-serif, "Apple Color Emoji", "Segoe UI Emoji", "Noto Color Emoji", "Twemoji Mozilla"; font-size: 12px; }
.subgraph rect { fill: #ffffde; stroke: #aaaa33; stroke-width: 1; opacity: 0.5; }
.subgraph text { fill: #333333; font-family: "trebuchet ms", verdana, arial, sans-serif, "Apple Color Emoji", "Segoe UI Emoji", "Noto Color Emoji", "Twemoji Mozilla"; font-size: 12px; font-weight: bold; }
</style>
  <g class="edge" data-edge-source="A" data-edge-target="B">
    <path d="M163.8,42.0 L163.8,74.0" stroke-width="2" marker-end="url(#arrow)" />
  </g>
  <g class="edge" data-edge-source="B" data-edge-target="C">
    <path d="M163.8,124.0 L163.8,156.0" stroke-width="2" marker-end="url(#arrow)" />
  </g>
  <g class="edge" data-edge-source="C" data-edge-target="D">
    <path d="M133.56,217.24 L76.98,259.98" stroke-width="2" marker-end="url(#arrow)" />
  </g>
  <g class="edge" data-edge-source="C" data-edge-target="E">
    <path d="M162.03,224.36 L160.11,256.81" stroke-width="2" marker-end="url(#arrow)" />
  </g>
  <g class="edge" data-edge-source="C" data-edge-target="F">
    <path d="M193.01,217.5 L246.56,259.84" stroke-width="2" marker-end="url(#arrow)" />
  </g>
  <g class="node" data-node-id="A">
    <rect x="107.4" y="0.0" width="112.8" height="42.0" />
    <text text-anchor="middle" dominant-baseline="central" font-family="&quot;trebuchet ms&quot;, verdana, arial, sans-serif, &quot;Apple Color Emoji&quot;, &quot;Segoe UI Emoji&quot;, &quot;Noto Color Emoji&quot;, &quot;Twemoji Mozilla&quot;" x="163.8" y="21">Christmas</text>
  </g>
  <g class="node" data-node-id="B">
    <rect x="97" y="82.0" width="133.6" height="42.0" rx="5" ry="5" />
    <text text-anchor="middle" dominant-baseline="central" font-family="&quot;trebuchet ms&quot;, verdana, arial, sans-serif, &quot;Apple Color Emoji&quot;, &quot;Segoe UI Emoji&quot;, &quot;Noto Color Emoji&quot;, &quot;Twemoji Mozilla&quot;" x="163.8" y="103">Go shopping</text>
  </g>
  <g class="node" data-node-id="C">
    <polygon points="163.8,164.0 285.4,194.4 163.8,224.8 42.2,194.4" />
    <text text-anchor="middle" dominant-baseline="central" font-family="&quot;trebuchet ms&quot;, verdana, arial, sans-serif, &quot;Apple Color Emoji&quot;, &quot;Segoe UI Emoji&quot;, &quot;Noto Color Emoji&quot;, &quot;Twemoji Mozilla&quot;" x="163.8" y="194.4">Let me think</text>
  </g>
  <g class="node" data-node-id="D">
    <rect x="0.0" y="264.8" width="85.6" height="42.0" />
    <text text-anchor="middle" dominant-baseline="central" font-family="&quot;trebuchet ms&quot;, verdana, arial, sans-serif, &quot;Apple Color Emoji&quot;, &quot;Segoe UI Emoji&quot;, &quot;Noto Color Emoji&quot;, &quot;Twemoji Mozilla&quot;" x="42.8" y="285.8">Laptop</text>
  </g>
  <g class="node" data-node-id="E">
    <rect x="115.6" y="264.8" width="85.6" height="42.0" />
    <text text-anchor="middle" dominant-baseline="central" font-family="&quot;trebuchet ms&quot;, verdana, arial, sans-serif, &quot;Apple Color Emoji&quot;, &quot;Segoe UI Emoji&quot;, &quot;Noto Color Emoji&quot;, &quot;Twemoji Mozilla&quot;" x="158.4" y="285.8">iPhone</text>
  </g>
  <g class="node" data-node-id="F">
    <rect x="231.2" y="264.8" width="96.4" height="42.0" />
    <g class="fa-icon" transform="translate(252.2,273.8) scale(0.05)">
      <path d="M135.2 117.4l-26.1 74.6 293.8 0-26.1-74.6C372.3 104.6 360.2 96 346.6 96L165.4 96c-13.6 0-25.7 8.6-30.2 21.4zM39.6 196.8L74.8 96.3C88.3 57.8 124.6 32 165.4 32l181.2 0c40.8 0 77.1 25.8 90.6 64.3l35.2 100.5c23.2 9.6 39.6 32.5 39.6 59.2l0 192c0 17.7-14.3 32-32 32l-32 0c-17.7 0-32-14.3-32-32l0-32-320 0 0 32c0 17.7-14.3 32-32 32l-32 0c-17.7 0-32-14.3-32-32L0 256c0-26.7 16.4-49.6 39.6-59.2zM128 304a32 32 0 1 0 -64 0 32 32 0 1 0 64 0zm288 32a32 32 0 1 0 0-64 32 32 0 1 0 0 64z" fill="#333333" />
    </g>
    <text x="288.4" y="285.8" text-anchor="middle" dominant-baseline="central" font-family="&quot;trebuchet ms&quot;, verdana, arial, sans-serif, &quot;Apple Color Emoji&quot;, &quot;Segoe UI Emoji&quot;, &quot;Noto Color Emoji&quot;, &quot;Twemoji Mozilla&quot;"> Car</text>
  </g>
  <g class="edge-label" data-edge-source="A" data-edge-target="B">
    <rect x="128.3" y="50.0" width="71.0" height="24.0" fill="rgba(232,232,232,0.8)" stroke="none" />
    <text text-anchor="middle" dominant-baseline="central" x="163.8" y="62.0">Get money</text>
  </g>
  <g class="edge-label" data-edge-source="C" data-edge-target="D">
    <rect x="87.58" y="229.02" width="29.0" height="24.0" fill="rgba(232,232,232,0.8)" stroke="none" />
    <text text-anchor="middle" dominant-baseline="central" x="102.08" y="241.02">One</text>
  </g>
  <g class="edge-label" data-edge-source="C" data-edge-target="E">
    <rect x="146.34" y="232.58" width="29.0" height="24.0" fill="rgba(232,232,232,0.8)" stroke="none" />
    <text text-anchor="middle" dominant-baseline="central" x="160.84" y="244.58">Two</text>
  </g>
  <g class="edge-label" data-edge-source="C" data-edge-target="F">
    <rect x="201.43" y="229.15" width="43.0" height="24.0" fill="rgba(232,232,232,0.8)" stroke="none" />
    <text text-anchor="middle" dominant-baseline="central" x="222.93" y="241.15">Three</text>
  </g>
</svg>