<svg xmlns="http://www.w3.org/2000/svg" viewBox="-8 -8 617.6 825.6" width="617.6" height="825.6" style="background-color: white">
  <defs>
    <marker id="arrow" viewBox="0 0 10 10" markerWidth="8" markerHeight="8" refX="0" refY="5" orient="auto" markerUnits="userSpaceOnUse">
      <path d="M 0 0 L 10 5 L 0 10 z" fill="#333333" />
    </marker>
    <marker id="circle-end" viewBox="0 0 10 10" markerWidth="8" markerHeight="8" refX="10" refY="5" orient="auto" markerUnits="userSpaceOnUse">
      <circle cx="5" cy="5" r="5" fill="#333333" />
    </marker>
    <marker id="cross-end" viewBox="0 0 11 11" markerWidth="8" markerHeight="8" refX="10" refY="5.5" orient="auto" markerUnits="userSpaceOnUse">
      <path d="M 1,1 l 9,9 M 10,1 l -9,9" stroke="#333333" stroke-width="2" />
    </marker>
    <marker id="arrow-reverse" viewBox="0 0 10 10" markerWidth="8" markerHeight="8" refX="0" refY="5" orient="auto-start-reverse" markerUnits="userSpaceOnUse">
      <path d="M 0 0 L 10 5 L 0 10 z" fill="#333333" />
    </marker>
  </defs>
  <style>.node rect, .node polygon, .node circle, .node &gt; path, .node line { fill: #ECECFF; stroke: #9370DB; stroke-width: 1; }
.node text { fill: #333333; font-family: "trebuchet ms", verdana, arial, sans-serif, "Apple Color Emoji", "Segoe UI Emoji", "Noto Color Emoji", "Twemoji Mozilla"; font-size: 16px; }
.edge path { fill: none; stroke: #333333; }
.edge text { fill: #333333; font-family: "trebuchet ms", verdana, arial, sans-serif, "Apple Color Emoji", "Segoe UI Emoji", "Noto Color Emoji", "Twemoji Mozilla"; font-size: 12px; }
.subgraph rect { fill: #ffffde; stroke: #aaaa33; stroke-width: 1; opacity: 0.5; }
.subgraph text { fill: #333333; font-family: "trebuchet ms", verdana, arial, sans-serif, "Apple Color Emoji", "Segoe UI Emoji", "Noto Color Emoji", "Twemoji Mozilla"; font-size: 12px; font-weight: bold; }
</style>
  <g class="edge" data-edge-source="Start" data-edge-target="Form">
    <path d="M271.3,42.0 L271.3,74.0" stroke-width="2" marker-end="url(#arrow)" />
  </g>
  <g class="edge" data-edge-source="Form" data-edge-target="Submit">
    <path d="M271.3,142.8 L271.3,174.8" stroke-width="2" marker-end="url(#arrow)" />
  </g>
  <g class="edge" data-edge-source="Submit" data-edge-target="ValidateEmail">
    <path d="M271.3,224.8 L271.3,256.8" stroke-width="2" marker-end="url(#arrow)" />
  </g>
  <g class="edge" data-edge-source="ValidateEmail" data-edge-target="EmailError">
    <path d="M303.63,325.6 L350.34,369.52" stroke-width="2" marker-end="url(#arrow)" />
    <rect x="257.08" y="338.3" width="22.0" height="24.0" fill="rgba(232,232,232,0.8)" stroke="none" />
    <text text-anchor="middle" dominant-baseline="central" x="268.08" y="350.3">No</text>
  </g>
  <g class="edge" data-edge-source="EmailError" data-edge-target="Form">
    <path d="M377.23,375.0 C376.42,361.7 377.14,323.73 372.4,295.2 C367.66,266.67 362.39,228.28 348.8,203.8 C335.21,179.32 300.51,157.58 290.86,148.33" stroke-width="2" marker-end="url(#arrow)" />
  </g>
  <g class="edge" data-edge-source="ValidateEmail" data-edge-target="CheckExists">
    <path d="M229.92,325.6 L181.92,360.86" stroke-width="2" marker-end="url(#arrow)" />
    <rect x="188.2" y="333.6" width="29.0" height="24.0" fill="rgba(232,232,232,0.8)" stroke="none" />
    <text text-anchor="middle" dominant-baseline="central" x="202.7" y="345.6">Yes</text>
  </g>
  <g class="edge" data-edge-source="CheckExists" data-edge-target="ExistsError">
    <path d="M225.99,426.4 L358.4,470.2" stroke-width="2" marker-end="url(#arrow)" />
    <rect x="272.05" y="437.56" width="29.0" height="24.0" fill="rgba(232,232,232,0.8)" stroke="none" />
    <text text-anchor="middle" dominant-baseline="central" x="286.55" y="449.56">Yes</text>
  </g>
  <g class="edge" data-edge-source="ExistsError" data-edge-target="Form">
    <path d="M466.21,466.4 C476.8,454.67 540.34,424.53 529.7,396.0 C519.06,367.47 427.55,327.23 402.4,295.2 C377.25,263.17 393.68,228.34 378.8,203.8 C363.92,179.26 324.09,157.29 313.15,147.98" stroke-width="2" marker-end="url(#arrow)" />
  </g>
  <g class="edge" data-edge-source="CheckExists" data-edge-target="ValidatePassword">
    <path d="M144.32,426.4 L155.23,458.82" stroke-width="2" marker-end="url(#arrow)" />
    <rect x="140.05" y="434.4" width="22.0" height="24.0" fill="rgba(232,232,232,0.8)" stroke="none" />
    <text text-anchor="middle" dominant-baseline="central" x="151.05" y="446.4">No</text>
  </g>
  <g class="edge" data-edge-source="ValidatePassword" data-edge-target="PasswordError">
    <path d="M225.44,527.2 L310.59,572.26" stroke-width="2" marker-end="url(#arrow)" />
    <rect x="260.55" y="539.6" width="22.0" height="24.0" fill="rgba(232,232,232,0.8)" stroke="none" />
    <text text-anchor="middle" dominant-baseline="central" x="271.55" y="551.6">No</text>
  </g>
  <g class="edge" data-edge-source="PasswordError" data-edge-target="Form">
    <path d="M437.92,576 C465.2,562.8 581.3,526.8 601.6,496.8 C621.9,466.8 587.9,429.6 559.7,396.0 C531.5,362.4 457.55,327.23 432.4,295.2 C407.25,263.17 424.97,228.39 408.8,203.8 C392.63,179.21 347.62,157.02 335.39,147.66" stroke-width="2" marker-end="url(#arrow)" />
  </g>
  <g class="edge" data-edge-source="ValidatePassword" data-edge-target="CreateUser">
    <path d="M170.08,527.2 L172.27,559.22" stroke-width="2" marker-end="url(#arrow)" />
    <rect x="156.95" y="535.2" width="29.0" height="24.0" fill="rgba(232,232,232,0.8)" stroke="none" />
    <text text-anchor="middle" dominant-baseline="central" x="171.45" y="547.2">Yes</text>
  </g>
  <g class="edge" data-edge-source="CreateUser" data-edge-target="SendEmail">
    <path d="M175.5,645.6 L175.5,677.6" stroke-width="2" marker-end="url(#arrow)" />
  </g>
  <g class="edge" data-edge-source="SendEmail" data-edge-target="Success">
    <path d="M175.5,727.6 L175.5,759.6" stroke-width="2" marker-end="url(#arrow)" />
  </g>
  <g class="node" data-node-id="Start">
    <rect x="157.3" y="0.0" width="228.0" height="42.0" rx="21.0" ry="21.0" />
    <text text-anchor="middle" dominant-baseline="central" font-family="&quot;trebuchet ms&quot;, verdana, arial, sans-serif, &quot;Apple Color Emoji&quot;, &quot;Segoe UI Emoji&quot;, &quot;Noto Color Emoji&quot;, &quot;Twemoji Mozilla&quot;" x="271.3" y="21">User clicks Register</text>
  </g>
  <g class="node" data-node-id="Form">
    <rect x="171.3" y="82.0" width="200.0" height="60.8" />
    <text text-anchor="middle" dominant-baseline="central" font-family="&quot;trebuchet ms&quot;, verdana, arial, sans-serif, &quot;Apple Color Emoji&quot;, &quot;Segoe UI Emoji&quot;, &quot;Noto Color Emoji&quot;, &quot;Twemoji Mozilla&quot;" x="271.3" y="101.2">
      <tspan x="271.3" y="101.2">Display registration</tspan>
      <tspan x="271.3" y="123.6">form</tspan>
    </text>
  </g>
  <g class="node" data-node-id="Submit">
    <rect x="177.3" y="182.8" width="188.0" height="42.0" />
    <text text-anchor="middle" dominant-baseline="central" font-family="&quot;trebuchet ms&quot;, verdana, arial, sans-serif, &quot;Apple Color Emoji&quot;, &quot;Segoe UI Emoji&quot;, &quot;Noto Color Emoji&quot;, &quot;Twemoji Mozilla&quot;" x="271.3" y="203.8">User submits form</text>
  </g>
  <g class="node" data-node-id="ValidateEmail">
    <polygon points="271.3,264.8 388.9,295.2 271.3,325.6 153.7,295.2" />
    <text text-anchor="middle" dominant-baseline="central" font-family="&quot;trebuchet ms&quot;, verdana, arial, sans-serif, &quot;Apple Color Emoji&quot;, &quot;Segoe UI Emoji&quot;, &quot;Noto Color Emoji&quot;, &quot;Twemoji Mozilla&quot;" x="271.3" y="295.2">Email valid?</text>
  </g>
  <g class="node" data-node-id="EmailError">
    <rect x="287.3" y="375.0" width="182.4" height="42.0" />
    <text text-anchor="middle" dominant-baseline="central" font-family="&quot;trebuchet ms&quot;, verdana, arial, sans-serif, &quot;Apple Color Emoji&quot;, &quot;Segoe UI Emoji&quot;, &quot;Noto Color Emoji&quot;, &quot;Twemoji Mozilla&quot;" x="378.5" y="396">Show email error</text>
  </g>
  <g class="node" data-node-id="CheckExists">
    <polygon points="134.1,365.6 257.3,396.0 134.1,426.4 10.9,396.0" />
    <text text-anchor="middle" dominant-baseline="central" font-family="&quot;trebuchet ms&quot;, verdana, arial, sans-serif, &quot;Apple Color Emoji&quot;, &quot;Segoe UI Emoji&quot;, &quot;Noto Color Emoji&quot;, &quot;Twemoji Mozilla&quot;" x="134.1" y="396">User exists?</text>
  </g>
  <g class="node" data-node-id="ExistsError">
    <rect x="366.0" y="466.4" width="145.6" height="60.8" />
    <text text-anchor="middle" dominant-baseline="central" font-family="&quot;trebuchet ms&quot;, verdana, arial, sans-serif, &quot;Apple Color Emoji&quot;, &quot;Segoe UI Emoji&quot;, &quot;Noto Color Emoji&quot;, &quot;Twemoji Mozilla&quot;" x="438.8" y="485.6">
      <tspan x="438.8" y="485.6">Show already</tspan>
      <tspan x="438.8" y="508">registered</tspan>
    </text>
  </g>
  <g class="node" data-node-id="ValidatePassword">
    <polygon points="168.0,466.4 336.0,496.8 168.0,527.2 0.0,496.8" />
    <text text-anchor="middle" dominant-baseline="central" font-family="&quot;trebuchet ms&quot;, verdana, arial, sans-serif, &quot;Apple Color Emoji&quot;, &quot;Segoe UI Emoji&quot;, &quot;Noto Color Emoji&quot;, &quot;Twemoji Mozilla&quot;" x="168" y="496.8">Password strong?</text>
  </g>
  <g class="node" data-node-id="PasswordError">
    <rect x="294.3" y="576" width="161.6" height="60.8" />
    <text text-anchor="middle" dominant-baseline="central" font-family="&quot;trebuchet ms&quot;, verdana, arial, sans-serif, &quot;Apple Color Emoji&quot;, &quot;Segoe UI Emoji&quot;, &quot;Noto Color Emoji&quot;, &quot;Twemoji Mozilla&quot;" x="375.1" y="595.2">
      <tspan x="375.1" y="595.2">Show password</tspan>
      <tspan x="375.1" y="617.6">requirements</tspan>
    </text>
  </g>
  <g class="node" data-node-id="CreateUser">
    <path d="M 86.7,577.2 A 88.8,10.0 0 0 1 264.3,577.2 L 264.3,635.6 A 88.8,10.0 0 0 1 86.7,635.6 L 86.7,577.2 M 86.7,577.2 A 88.8,10.0 0 0 0 264.3,577.2" />
    <text text-anchor="middle" dominant-baseline="central" font-family="&quot;trebuchet ms&quot;, verdana, arial, sans-serif, &quot;Apple Color Emoji&quot;, &quot;Segoe UI Emoji&quot;, &quot;Noto Color Emoji&quot;, &quot;Twemoji Mozilla&quot;" x="175.5" y="606.4">Save to database</text>
  </g>
  <g class="node" data-node-id="SendEmail">
    <polygon points="65.1,685.6 313.5,685.6 285.9,727.6 37.5,727.6" />
    <text text-anchor="middle" dominant-baseline="central" font-family="&quot;trebuchet ms&quot;, verdana, arial, sans-serif, &quot;Apple Color Emoji&quot;, &quot;Segoe UI Emoji&quot;, &quot;Noto Color Emoji&quot;, &quot;Twemoji Mozilla&quot;" x="175.5" y="706.6">Send verification email</text>
  </g>
  <g class="node" data-node-id="Success">
    <rect x="51.1" y="767.6" width="248.8" height="42.0" rx="21.0" ry="21.0" />
    <text text-anchor="middle" dominant-baseline="central" font-family="&quot;trebuchet ms&quot;, verdana, arial, sans-serif, &quot;Apple Color Emoji&quot;, &quot;Segoe UI Emoji&quot;, &quot;Noto Color Emoji&quot;, &quot;Twemoji Mozilla&quot;" x="175.5" y="788.6">Show success message</text>
  </g>
</svg>