<svg xmlns="http://www.w3.org/2000/svg" viewBox="-20 -20 780.8 442.8" width="780.8" height="442.8" style="background-color: white">
  <defs>
    <marker id="arrow" markerWidth="10" markerHeight="7" refX="10" refY="3.5" orient="auto" markerUnits="strokeWidth">
      <path d="M0,0 L10,3.5 L0,7 Z" fill="#333333" />
    </marker>
    <marker id="circle-end" markerWidth="10" markerHeight="10" refX="5" refY="5" orient="auto" markerUnits="strokeWidth">
      <circle cx="5" cy="5" r="4" fill="#333333" />
    </marker>
    <marker id="cross-end" markerWidth="10" markerHeight="10" refX="5" refY="5" orient="auto" markerUnits="strokeWidth">
      <line x1="1" y1="1" x2="9" y2="9" stroke="#333333" stroke-width="2" />
      <line x1="9" y1="1" x2="1" y2="9" stroke="#333333" stroke-width="2" />
    </marker>
    <marker id="arrow-reverse" markerWidth="10" markerHeight="7" refX="10" refY="3.5" orient="auto-start-reverse" markerUnits="strokeWidth">
      <path d="M0,0 L10,3.5 L0,7 Z" fill="#333333" />
    </marker>
  </defs>
  <style>.node rect, .node polygon, .node circle, .node path, .node line { fill: #ECECFF; stroke: #9370DB; stroke-width: 2; }
.node text { fill: #333333; font-family: "trebuchet ms", verdana, arial, sans-serif; font-size: 16px; }
.edge path { fill: none; stroke: #333333; stroke-width: 2; }
.edge text { fill: #333333; font-family: "trebuchet ms", verdana, arial, sans-serif; font-size: 12px; }
.subgraph rect { fill: #ffffde; stroke: #aaaa33; stroke-width: 1; opacity: 0.5; }
.subgraph text { fill: #333333; font-family: "trebuchet ms", verdana, arial, sans-serif; font-size: 12px; font-weight: bold; }
</style>
  <g class="edge" data-edge-source="A" data-edge-target="B">
    <path d="M54.0,233.4 L134.0,233.4" stroke-width="2" marker-end="url(#arrow)" />
    <rect x="48.0" y="221.4" width="92.0" height="24.0" fill="rgba(232,232,232,0.8)" stroke="none" />
    <text text-anchor="middle" dominant-baseline="central" x="94.0" y="233.4">HTTP Request</text>
  </g>
  <g class="edge" data-edge-source="B" data-edge-target="C">
    <path d="M188.0,233.4 L268.0,233.4" stroke-width="2" marker-end="url(#arrow)" />
  </g>
  <g class="edge" data-edge-source="C" data-edge-target="D">
    <path d="M322.0,199.07 L402.0,97.33" stroke-width="2" marker-end="url(#arrow)" />
    <rect x="344.0" y="136.2" width="36.0" height="24.0" fill="rgba(232,232,232,0.8)" stroke="none" />
    <text text-anchor="middle" dominant-baseline="central" x="362.0" y="148.2">/api</text>
  </g>
  <g class="edge" data-edge-source="C" data-edge-target="E">
    <path d="M322.0,227.76 L402.0,211.04" stroke-width="2" marker-end="url(#arrow)" />
    <rect x="333.5" y="207.4" width="57.0" height="24.0" fill="rgba(232,232,232,0.8)" stroke="none" />
    <text text-anchor="middle" dominant-baseline="central" x="362.0" y="219.4">/static</text>
  </g>
  <g class="edge" data-edge-source="C" data-edge-target="F">
    <path d="M322.0,262.09 L402.0,347.11" stroke-width="2" marker-end="url(#arrow)" />
    <rect x="347.5" y="292.6" width="29.0" height="24.0" fill="rgba(232,232,232,0.8)" stroke="none" />
    <text text-anchor="middle" dominant-baseline="central" x="362.0" y="304.6">/ws</text>
  </g>
  <g class="edge" data-edge-source="D" data-edge-target="G">
    <path d="M456.0,79.04 L536.0,126.56" stroke-width="2" marker-end="url(#arrow)" />
  </g>
  <g class="edge" data-edge-source="D" data-edge-target="H">
    <path d="M456.0,112.73 L536.0,260.07" stroke-width="2" marker-end="url(#arrow)" />
  </g>
  <g class="edge" data-edge-source="F" data-edge-target="H">
    <path d="M456.0,362.5 L536.0,323.1" stroke-width="2" marker-end="url(#arrow)" />
  </g>
  <g class="edge" data-edge-source="G" data-edge-target="I">
    <path d="M590.0,160.9 L670.0,215.1" stroke-width="2" marker-end="url(#arrow)" />
  </g>
  <g class="node" data-node-id="A">
    <rect x="-43.2" y="206.4" width="140.4" height="54.0" />
    <text text-anchor="middle" dominant-baseline="central" font-family="&quot;trebuchet ms&quot;, verdana, arial, sans-serif" x="27" y="233.4">Web Browser</text>
  </g>
  <g class="node" data-node-id="B">
    <rect x="85.6" y="206.4" width="150.8" height="54.0" rx="5" ry="5" />
    <text text-anchor="middle" dominant-baseline="central" font-family="&quot;trebuchet ms&quot;, verdana, arial, sans-serif" x="161" y="233.4">Load Balancer</text>
  </g>
  <g class="node" data-node-id="C">
    <polygon points="295.0,206.4 332.0,233.4 295.0,260.4 258.0,233.4" />
    <text text-anchor="middle" dominant-baseline="central" font-family="&quot;trebuchet ms&quot;, verdana, arial, sans-serif" x="295" y="233.4">Route</text>
  </g>
  <g class="node" data-node-id="D">
    <rect x="366.0" y="36.0" width="126.0" height="54.0" />
    <text text-anchor="middle" dominant-baseline="central" font-family="&quot;trebuchet ms&quot;, verdana, arial, sans-serif" x="429" y="63">API Server</text>
  </g>
  <g class="node" data-node-id="E">
    <rect x="399.6" y="178.4" width="58.8" height="54.0" />
    <text text-anchor="middle" dominant-baseline="central" font-family="&quot;trebuchet ms&quot;, verdana, arial, sans-serif" x="429" y="205.4">CDN</text>
  </g>
  <g class="node" data-node-id="F">
    <rect x="338.0" y="348.8" width="182.0" height="54.0" />
    <text text-anchor="middle" dominant-baseline="central" font-family="&quot;trebuchet ms&quot;, verdana, arial, sans-serif" x="429" y="375.8">WebSocket Server</text>
  </g>
  <g class="node" data-node-id="G">
    <path d="M 511.6,125.6 A 51.4,10.0 0 0 1 614.4,125.6 L 614.4,159.6 A 51.4,10.0 0 0 1 511.6,159.6 L 511.6,125.6 M 511.6,125.6 A 51.4,10.0 0 0 0 614.4,125.6" />
    <text text-anchor="middle" dominant-baseline="central" font-family="&quot;trebuchet ms&quot;, verdana, arial, sans-serif" x="563" y="142.6">Database</text>
  </g>
  <g class="node" data-node-id="H">
    <path d="M 497.2,292.8 A 65.8,10.0 0 0 1 628.8,292.8 L 628.8,326.8 A 65.8,10.0 0 0 1 497.2,326.8 L 497.2,292.8 M 497.2,292.8 A 65.8,10.0 0 0 0 628.8,292.8" />
    <text text-anchor="middle" dominant-baseline="central" font-family="&quot;trebuchet ms&quot;, verdana, arial, sans-serif" x="563" y="309.8">Redis Cache</text>
  </g>
  <g class="node" data-node-id="I">
    <rect x="653.2" y="206.4" width="87.6" height="54.0" />
    <text text-anchor="middle" dominant-baseline="central" font-family="&quot;trebuchet ms&quot;, verdana, arial, sans-serif" x="697" y="233.4">Backup</text>
  </g>
</svg>