<svg xmlns="http://www.w3.org/2000/svg" viewBox="-20 -20 295.6 1320" width="295.6" height="1320" style="background-color: white">
  <defs>
    <marker id="arrow" markerWidth="10" markerHeight="7" refX="10" refY="3.5" orient="auto" markerUnits="strokeWidth">
      <path d="M0,0 L10,3.5 L0,7 Z" fill="#333333" />
    </marker>
    <marker id="circle-end" markerWidth="10" markerHeight="10" refX="5" refY="5" orient="auto" markerUnits="strokeWidth">
      <circle cx="5" cy="5" r="4" fill="#333333" />
    </marker>
    <marker id="cross-end" markerWidth="10" markerHeight="10" refX="5" refY="5" orient="auto" markerUnits="strokeWidth">
      <line x1="1" y1="1" x2="9" y2="9" stroke="#333333" stroke-width="2" />
      <line x1="9" y1="1" x2="1" y2="9" stroke="#333333" stroke-width="2" />
    </marker>
    <marker id="arrow-reverse" markerWidth="10" markerHeight="7" refX="10" refY="3.5" orient="auto-start-reverse" markerUnits="strokeWidth">
      <path d="M0,0 L10,3.5 L0,7 Z" fill="#333333" />
    </marker>
  </defs>
  <style>.state rect, .state polygon, .state circle, .state line { fill: #ECECFF; stroke: #9370DB; stroke-width: 2; }
.state text { fill: #333333; font-family: "trebuchet ms", verdana, arial, sans-serif; font-size: 16px; }
.edge path { fill: none; stroke: #333333; stroke-width: 2; }
.edge text { fill: #333333; font-family: "trebuchet ms", verdana, arial, sans-serif; font-size: 12px; }
.composite rect { fill: #ffffde; stroke: #aaaa33; stroke-width: 1; opacity: 0.5; }
.composite text { fill: #333333; font-family: "trebuchet ms", verdana, arial, sans-serif; font-size: 12px; font-weight: bold; }
.note rect { fill: #ffa; stroke: #aa3; stroke-width: 1; }
.note text { fill: #333333; font-family: "trebuchet ms", verdana, arial, sans-serif; font-size: 12px; }
</style>
  <g class="composite" data-state-id="Processing">
    <rect x="-20" y="768" width="148.4" height="512" rx="10" ry="10" />
    <text x="-10" y="784" font-family="&quot;trebuchet ms&quot;, verdana, arial, sans-serif">Processing</text>
  </g>
  <g class="edge" data-edge-source="__start_0" data-edge-target="Idle">
    <path d="M127.8,54.0 L127.8,134.0" stroke-width="2" marker-end="url(#arrow)" />
  </g>
  <g class="edge" data-edge-source="Idle" data-edge-target="Processing">
    <path d="M122.66,188.0 L107.44,268.0" stroke-width="2" marker-end="url(#arrow)" />
    <rect x="90.05" y="216.0" width="50.0" height="24.0" fill="rgba(232,232,232,0.8)" stroke="none" />
    <text text-anchor="middle" dominant-baseline="central" x="115.05" y="228.0">submit</text>
  </g>
  <g class="edge" data-edge-source="Processing" data-edge-target="Validating">
    <path d="M102.3,322.0 L102.3,402.0" stroke-width="2" marker-end="url(#arrow)" />
    <rect x="70.3" y="350.0" width="64.0" height="24.0" fill="rgba(232,232,232,0.8)" stroke="none" />
    <text text-anchor="middle" dominant-baseline="central" x="102.3" y="362.0">validate</text>
  </g>
  <g class="edge" data-edge-source="Validating" data-edge-target="Processing">
    <path d="M102.3,402.0 L102.3,322.0" stroke-width="2" marker-end="url(#arrow)" />
    <rect x="80.8" y="350.0" width="43.0" height="24.0" fill="rgba(232,232,232,0.8)" stroke="none" />
    <text text-anchor="middle" dominant-baseline="central" x="102.3" y="362.0">retry</text>
  </g>
  <g class="edge" data-edge-source="Validating" data-edge-target="Approved">
    <path d="M92.45,456.0 L63.25,536.0" stroke-width="2" marker-end="url(#arrow)" />
    <rect x="59.85" y="484.0" width="36.0" height="24.0" fill="rgba(232,232,232,0.8)" stroke="none" />
    <text text-anchor="middle" dominant-baseline="central" x="77.85" y="496.0">pass</text>
  </g>
  <g class="edge" data-edge-source="Validating" data-edge-target="Rejected">
    <path d="M123.24,456.0 L185.26,536.0" stroke-width="2" marker-end="url(#arrow)" />
    <rect x="136.25" y="484.0" width="36.0" height="24.0" fill="rgba(232,232,232,0.8)" stroke="none" />
    <text text-anchor="middle" dominant-baseline="central" x="154.25" y="496.0">fail</text>
  </g>
  <g class="edge" data-edge-source="Approved" data-edge-target="__end_0">
    <path d="M68.39,590.0 L112.81,670.0" stroke-width="2" marker-end="url(#arrow)" />
  </g>
  <g class="edge" data-edge-source="Rejected" data-edge-target="Idle">
    <path d="M206.52,536.0 C206.74,518.17 206.59,469.17 207.8,429.0 C209.01,388.83 224.25,335.17 213.8,295.0 C203.35,254.83 156.57,205.83 145.13,188.0" stroke-width="2" marker-end="url(#arrow)" />
    <rect x="178.8" y="350.0" width="64.0" height="24.0" fill="rgba(232,232,232,0.8)" stroke="none" />
    <text text-anchor="middle" dominant-baseline="central" x="210.8" y="362.0">resubmit</text>
  </g>
  <g class="edge" data-edge-source="__start_1" data-edge-target="Parsing">
    <path d="M54.2,858.0 L54.2,938.0" stroke-width="2" marker-end="url(#arrow)" />
  </g>
  <g class="edge" data-edge-source="Parsing" data-edge-target="Analyzing">
    <path d="M54.2,992.0 L54.2,1072.0" stroke-width="2" marker-end="url(#arrow)" />
  </g>
  <g class="edge" data-edge-source="Analyzing" data-edge-target="__end_1">
    <path d="M54.2,1126.0 L54.2,1206.0" stroke-width="2" marker-end="url(#arrow)" />
  </g>
  <g class="state start">
    <circle cx="127.8" cy="27" r="10" fill="black" stroke="black" />
  </g>
  <g class="state" data-state-id="Idle">
    <rect x="95.6" y="134" width="64.4" height="54" rx="10" ry="10" />
    <text x="127.8" y="161" text-anchor="middle" dominant-baseline="central" font-family="&quot;trebuchet ms&quot;, verdana, arial, sans-serif">Idle</text>
  </g>
  <g class="state start">
    <circle cx="54.2" cy="831" r="10" fill="black" stroke="black" />
  </g>
  <g class="state" data-state-id="Parsing">
    <rect x="7.6" y="938" width="93.2" height="54" rx="10" ry="10" />
    <text x="54.2" y="965" text-anchor="middle" dominant-baseline="central" font-family="&quot;trebuchet ms&quot;, verdana, arial, sans-serif">Parsing</text>
  </g>
  <g class="state" data-state-id="Analyzing">
    <rect x="0" y="1072" width="108.4" height="54" rx="10" ry="10" />
    <text x="54.2" y="1099" text-anchor="middle" dominant-baseline="central" font-family="&quot;trebuchet ms&quot;, verdana, arial, sans-serif">Analyzing</text>
  </g>
  <g class="state end">
    <circle cx="54.2" cy="1233" r="10" fill="none" stroke="black" stroke-width="2" />
    <circle cx="54.2" cy="1233" r="6" fill="black" stroke="black" />
  </g>
  <g class="state" data-state-id="Validating">
    <rect x="47.3" y="402" width="110" height="54" rx="10" ry="10" />
    <text x="102.3" y="429" text-anchor="middle" dominant-baseline="central" font-family="&quot;trebuchet ms&quot;, verdana, arial, sans-serif">Validating</text>
  </g>
  <g class="state" data-state-id="Approved">
    <rect x="0" y="536" width="106.8" height="54" rx="10" ry="10" />
    <text x="53.4" y="563" text-anchor="middle" dominant-baseline="central" font-family="&quot;trebuchet ms&quot;, verdana, arial, sans-serif">Approved</text>
  </g>
  <g class="state" data-state-id="Rejected">
    <rect x="156.8" y="536" width="98.8" height="54" rx="10" ry="10" />
    <text x="206.2" y="563" text-anchor="middle" dominant-baseline="central" font-family="&quot;trebuchet ms&quot;, verdana, arial, sans-serif">Rejected</text>
  </g>
  <g class="state end">
    <circle cx="127.8" cy="697" r="10" fill="none" stroke="black" stroke-width="2" />
    <circle cx="127.8" cy="697" r="6" fill="black" stroke="black" />
  </g>
</svg>